<?xml version="1.0" encoding="utf-8"?>
<!-- Generator: Adobe Illustrator 24.2.3, SVG Export Plug-In . SVG Version: 6.00 Build 0)  -->
<svg version="1.1" id="Layer_1" xmlns="http://www.w3.org/2000/svg" xmlns:xlink="http://www.w3.org/1999/xlink" x="0px" y="0px"
	 viewBox="0 0 512 128" style="enable-background:new 0 0 512 128;" xml:space="preserve">
<style type="text/css">
	.st0{fill:#0078FF;}
	.st1{fill:#C9C9C9;}
</style>
<g>
	<g>
		<path class="st0" d="M61,118.5c-6.3,0-12.6-2.4-17.4-7.2L15.4,83.1c-9.6-9.6-9.6-25.2,0-34.8l28.2-28.2c9.6-9.6,25.2-9.6,34.8,0
			l9.8,9.8c2,2,2,5.4,0,7.5c-2,2-5.4,2-7.5,0l-9.8-9.8c-5.5-5.5-14.4-5.5-19.8,0L22.9,55.8c-5.5,5.5-5.5,14.4,0,19.8l28.2,28.2
			c2.7,2.7,6.1,4.1,9.9,4.1s7.3-1.5,9.9-4.1l28.2-28.2c0.2-0.2,0.4-0.4,0.5-0.5c2.7-3.1,3.4-7.3,1.6-11.1c-1.4-3.2-4.8-6.6-10-6.6
			H80.2v10.7c0,9.5-7.8,17.3-17.3,17.3s-17.3-7.8-17.3-17.3v-4c0-9.5,7.8-17.3,17.3-17.3h28.6c8.6,0,16.1,4.9,19.6,12.8
			c3.5,7.7,2.1,16.3-3.4,22.5c-0.4,0.4-0.6,0.7-1,1.1l-28.2,28.2C73.6,116.1,67.3,118.5,61,118.5z M62.8,57.3c-3.7,0-6.7,3-6.7,6.7
			v4c0,3.7,3,6.7,6.7,6.7c3.7,0,6.7-3,6.7-6.7V57.3H62.8L62.8,57.3z"/>
	</g>
</g>
<g>
	<path class="st0" d="M155.9,32.2c5.3,0,9.2,1.2,11.8,3.7c2.6,2.5,3.9,6.1,3.9,11c0,2.6-0.6,4.9-1.9,6.8c-1.2,2-3.1,3.5-5.6,4.6
		c-2.5,1-5.6,1.7-9.2,1.7l0.3-3.7c1.8,0,3.6,0.2,5.9,0.7c2.2,0.5,4.3,1.3,6.4,2.5c2.1,1.1,3.8,2.8,5.2,5c1.3,2.2,2.1,4.9,2.1,8.2
		c0,3.6-0.6,6.6-1.8,8.9c-1.1,2.3-2.8,4.1-4.7,5.4c-2,1.2-4,2.2-6.2,2.6c-2.2,0.5-4.3,0.7-6.4,0.7h-20.6c-1.4,0-2.6-0.5-3.6-1.4
		c-0.9-0.9-1.4-2.2-1.4-3.6V37.3c0-1.4,0.5-2.6,1.4-3.6c0.9-0.9,2.2-1.4,3.6-1.4C135.2,32.2,155.9,32.2,155.9,32.2z M154.4,42h-14.8
		l1-1.3v15l-1-0.7h14.9c1.6,0,3-0.5,4.3-1.6c1.2-1,1.9-2.6,1.9-4.6c0-2.4-0.6-4.1-1.8-5.2C157.8,42.5,156.3,42,154.4,42z
		 M155.1,64.7h-15.1l0.7-0.6v17.4l-0.8-0.8h15.7c2.6,0,4.6-0.7,6-2.1c1.4-1.3,2.3-3.4,2.3-6.1c0-2.5-0.5-4.2-1.4-5.4
		c-1-1.1-2.2-1.8-3.5-2.1C157.5,64.8,156.2,64.7,155.1,64.7z"/>
	<path class="st0" d="M193.9,85.2c0,1.4-0.5,2.6-1.4,3.6c-0.9,0.9-2.2,1.4-3.6,1.4c-1.3,0-2.6-0.5-3.5-1.4c-0.9-0.9-1.4-2.2-1.4-3.6
		V33.9c0-1.4,0.5-2.6,1.4-3.6c0.9-0.9,2.2-1.4,3.6-1.4c1.4,0,2.6,0.5,3.5,1.4c0.9,0.9,1.3,2.2,1.3,3.6v51.2H193.9z"/>
	<path class="st0" d="M247.2,68.1c0,4.6-1,8.5-3,12c-2,3.4-4.8,6.1-8.1,8.1c-3.4,2-7.1,2.9-11.4,2.9c-4.2,0-8-0.9-11.4-2.9
		c-3.4-2-6.1-4.7-8.1-8.1c-2-3.4-3-7.5-3-12s1-8.5,3-12c2-3.4,4.8-6.1,8.1-8.1c3.4-2,7.1-2.9,11.4-2.9c4.2,0,8,0.9,11.4,2.9
		c3.4,2,6.1,4.7,8.1,8.1C246.3,59.6,247.2,63.6,247.2,68.1z M237.3,68.1c0-2.8-0.5-5.3-1.7-7.4s-2.7-3.7-4.6-4.9s-4-1.8-6.3-1.8
		c-2.3,0-4.5,0.6-6.3,1.8c-1.9,1.1-3.4,2.8-4.6,4.9s-1.7,4.6-1.7,7.4c0,2.8,0.5,5.2,1.7,7.2c1.1,2.1,2.7,3.7,4.6,4.9
		c1.9,1.1,4,1.8,6.3,1.8s4.5-0.6,6.3-1.8c1.9-1.1,3.4-2.8,4.6-4.9C236.7,73.3,237.3,70.9,237.3,68.1z"/>
	<path class="st0" d="M273.5,45c2.3,0,4.5,0.3,6.4,1c2,0.7,3.6,1.7,5,2.7c1.4,1.1,2.5,2.2,3.3,3.3c0.8,1.1,1.2,2.1,1.2,2.9l-2.2,1
		v-6c0-1.4,0.5-2.6,1.4-3.6c0.9-0.9,2.2-1.4,3.5-1.4c1.3,0,2.6,0.5,3.5,1.4c0.9,0.9,1.4,2.2,1.4,3.6v36.9c0,4.8-1,8.7-3.1,11.6
		c-2.1,2.9-4.8,5-8.2,6.3c-3.4,1.3-6.9,2-10.9,2c-1.1,0-2.6-0.1-4.3-0.4c-1.8-0.3-3.4-0.6-5.1-1c-1.6-0.4-2.8-0.7-3.6-1
		c-1.7-0.7-2.8-1.7-3.4-2.7c-0.6-1-0.7-2.2-0.4-3.4c0.5-1.6,1.3-2.7,2.4-3.3c1.1-0.6,2.3-0.6,3.5-0.2c0.5,0.2,1.4,0.5,2.7,1
		c1.2,0.5,2.7,0.9,4.1,1.3c1.6,0.4,2.9,0.6,4,0.6c4.1,0,7.2-0.8,9.2-2.5s3-3.9,3-6.8v-7.2l1,0.7c0,0.7-0.4,1.6-1.1,2.6
		c-0.7,1-1.8,2.1-3.1,3c-1.3,1-2.8,1.9-4.6,2.5c-1.8,0.7-3.6,1-5.6,1c-3.9,0-7.5-0.9-10.6-2.9s-5.6-4.7-7.5-8.1
		c-1.9-3.4-2.7-7.5-2.7-11.9c0-4.6,0.9-8.5,2.7-12c1.9-3.4,4.2-6.1,7.4-8.1C266.2,46.1,269.7,45,273.5,45z M275,54.1
		c-2.5,0-4.7,0.6-6.5,1.9c-1.9,1.2-3.3,2.9-4.3,5c-1,2.1-1.6,4.5-1.6,7.1c0,2.6,0.5,5,1.6,7c1,2.1,2.5,3.7,4.3,5
		c1.9,1.2,4,1.9,6.5,1.9c2.6,0,4.8-0.6,6.6-1.9s3.3-2.9,4.3-5c1-2.1,1.6-4.5,1.6-7c0-2.7-0.5-5.1-1.6-7.1c-1-2.1-2.5-3.7-4.3-5
		C279.8,54.8,277.6,54.1,275,54.1z"/>
	<path class="st1" d="M334.7,32.2c5.3,0,9.2,1.2,11.8,3.7c2.6,2.5,3.9,6.1,3.9,11c0,2.6-0.6,4.9-1.9,6.8c-1.2,2-3.1,3.5-5.6,4.6
		c-2.5,1-5.6,1.7-9.2,1.7l0.3-3.7c1.8,0,3.6,0.2,5.9,0.7c2.2,0.5,4.3,1.3,6.4,2.5c2.1,1.1,3.8,2.8,5.2,5c1.3,2.2,2.1,4.9,2.1,8.2
		c0,3.6-0.6,6.6-1.8,8.9s-2.8,4.1-4.7,5.4c-2,1.2-4,2.2-6.2,2.6c-2.2,0.5-4.3,0.7-6.4,0.7H314c-1.4,0-2.6-0.5-3.6-1.4
		c-0.9-0.9-1.4-2.2-1.4-3.6V37.3c0-1.4,0.5-2.6,1.4-3.6c0.9-0.9,2.2-1.4,3.6-1.4C314,32.2,334.7,32.2,334.7,32.2z M333.2,42h-14.7
		l1-1.3v15l-1-0.7h14.9c1.6,0,3-0.5,4.3-1.6c1.2-1,1.9-2.6,1.9-4.6c0-2.4-0.6-4.1-1.8-5.2C336.8,42.5,335.2,42,333.2,42z
		 M333.9,64.7h-15.1l0.7-0.6v17.4l-0.8-0.8h15.7c2.6,0,4.6-0.7,6-2.1c1.4-1.3,2.3-3.4,2.3-6.1c0-2.5-0.5-4.2-1.4-5.4
		c-1-1.1-2.2-1.8-3.5-2.1C336.3,64.8,335.1,64.7,333.9,64.7z"/>
	<path class="st1" d="M404.7,68.1c0,4.6-1,8.5-3,12c-2,3.4-4.8,6.1-8.1,8.1c-3.4,2-7.1,2.9-11.4,2.9c-4.2,0-8-0.9-11.4-2.9
		c-3.4-2-6.1-4.7-8.1-8.1c-2-3.4-3-7.5-3-12s1-8.5,3-12c2-3.4,4.8-6.1,8.1-8.1c3.4-2,7.1-2.9,11.4-2.9c4.2,0,8,0.9,11.4,2.9
		c3.4,2,6.1,4.7,8.1,8.1C403.7,59.6,404.7,63.6,404.7,68.1z M394.7,68.1c0-2.8-0.5-5.3-1.7-7.4s-2.7-3.7-4.6-4.9
		c-1.9-1.1-4-1.8-6.3-1.8c-2.3,0-4.5,0.6-6.3,1.8c-1.9,1.1-3.4,2.8-4.6,4.9s-1.7,4.6-1.7,7.4c0,2.8,0.5,5.2,1.7,7.2s2.7,3.7,4.6,4.9
		c1.9,1.1,4,1.8,6.3,1.8c2.3,0,4.5-0.6,6.3-1.8c1.9-1.1,3.4-2.8,4.6-4.9S394.7,70.9,394.7,68.1z"/>
	<path class="st1" d="M455.6,68.1c0,4.6-1,8.5-3,12c-2,3.4-4.8,6.1-8.1,8.1c-3.4,2-7.1,2.9-11.4,2.9s-8-0.9-11.4-2.9
		c-3.4-2-6.1-4.7-8.1-8.1c-2-3.4-3-7.5-3-12s1-8.5,3-12c2-3.4,4.8-6.1,8.1-8.1c3.4-2,7.1-2.9,11.4-2.9s8,0.9,11.4,2.9
		c3.4,2,6.1,4.7,8.1,8.1C454.6,59.6,455.6,63.6,455.6,68.1z M445.6,68.1c0-2.8-0.5-5.3-1.7-7.4c-1.1-2.1-2.7-3.7-4.6-4.9
		s-4-1.8-6.3-1.8s-4.5,0.6-6.3,1.8c-1.9,1.1-3.4,2.8-4.6,4.9s-1.7,4.6-1.7,7.4c0,2.8,0.5,5.2,1.7,7.2s2.7,3.7,4.6,4.9
		c1.9,1.1,4,1.8,6.3,1.8s4.5-0.6,6.3-1.8c1.9-1.1,3.4-2.8,4.6-4.9C445,73.3,445.6,70.9,445.6,68.1z"/>
	<path class="st1" d="M469.7,90.2c-1.4,0-2.6-0.5-3.5-1.4c-0.9-0.9-1.4-2.2-1.4-3.6V33.9c0-1.4,0.5-2.6,1.4-3.6
		c0.9-0.9,2.2-1.4,3.5-1.4c1.4,0,2.6,0.5,3.5,1.4c0.9,0.9,1.4,2.2,1.4,3.6v51.1c0,1.4-0.5,2.6-1.4,3.6
		C472.3,89.7,471,90.2,469.7,90.2z M496,45.9c1.2,0,2.4,0.5,3.3,1.6c0.9,1,1.4,2.1,1.4,3.1c0,1.3-0.6,2.6-2,3.7l-25,23l-0.4-11.4
		l18.9-18.3C493.4,46.5,494.6,45.9,496,45.9z M497.2,90.2c-1.4,0-2.7-0.5-3.6-1.7l-15.3-16.3l7.6-6.9l14.9,16.2
		c1,1.1,1.6,2.4,1.6,3.7c0,1.4-0.5,2.6-1.7,3.5C499.4,89.6,498.4,90.2,497.2,90.2z"/>
</g>
</svg>
