<?xml version="1.0" encoding="utf-8"?>
<!-- Generator: Adobe Illustrator 24.2.3, SVG Export Plug-In . SVG Version: 6.00 Build 0)  -->
<svg version="1.1" id="Layer_1" xmlns="http://www.w3.org/2000/svg" xmlns:xlink="http://www.w3.org/1999/xlink" x="0px" y="0px"
	 viewBox="0 0 512 512" style="enable-background:new 0 0 512 512;" xml:space="preserve">
<style type="text/css">
	.st0{fill:url(#SVGID_1_);}
</style>
<g>
	<g>
		
			<linearGradient id="SVGID_1_" gradientUnits="userSpaceOnUse" x1="254.7505" y1="7.0384" x2="254.7505" y2="506.6056" gradientTransform="matrix(6.123234e-17 -1 1 6.123234e-17 -2.0715 511.5725)">
			<stop  offset="0" style="stop-color:#0078FF"/>
			<stop  offset="0.9985" style="stop-color:#005DE7"/>
		</linearGradient>
		<path class="st0" d="M256.4,508.5c-30,0-60.1-11.3-82.7-34.3L39.2,339.7c-45.6-45.6-45.6-120.1,0-165.8L173.7,39.3
			c45.6-45.6,120.1-45.6,165.8,0l46.4,46.4c9.8,9.8,9.8,25.7,0,35.5c-9.8,9.8-25.7,9.8-35.5,0L304,74.8c-26.1-26.1-68.3-26.1-94.4,0
			L75.1,209.4c-26.1,26.1-26.1,68.3,0,94.4l134.6,134.6c12.5,12.5,29.3,19.5,47.2,19.5s34.7-7,47.2-19.5l134.6-134.6
			c0.8-0.8,2-2,2.7-2.7c13.3-14.8,16-34.7,7.8-53c-6.6-15.2-23-31.2-47.6-31.2h-53.4v51.1c0,45.2-37.1,82.3-82.3,82.3
			s-82.3-37.1-82.3-82.3v-19.1c0-45.2,37.1-82.3,82.3-82.3h136.1c41,0,76.8,23.4,93.6,60.8c16.4,36.7,10.1,77.6-16,107.3
			c-1.6,1.6-3.1,3.5-4.7,5.1L340.3,474.2C316.5,497.2,286.5,508.5,256.4,508.5z M265.4,216.8c-17.6,0-32,14.4-32,32v19.1
			c0,17.6,14.4,32,32,32c17.6,0,32-14.4,32-32v-51.1H265.4z"/>
	</g>
</g>
</svg>
